<?xml version="1.0" standalone="no"?>
<!DOCTYPE svg PUBLIC "-//W3C//DTD SVG 20010904//EN"
 "http://www.w3.org/TR/2001/REC-SVG-20010904/DTD/svg10.dtd">
<svg version="1.0" xmlns="http://www.w3.org/2000/svg"
 width="500.000000pt" height="500.000000pt" viewBox="0 0 500.000000 500.000000"
 preserveAspectRatio="xMidYMid meet">

<g transform="translate(0.000000,500.000000) scale(0.100000,-0.100000)"
fill="#000000" stroke="none">
<path d="M1883 2635 c-23 -16 -31 -58 -15 -82 4 -6 29 -21 55 -32 34 -15 45
-24 41 -36 -7 -17 -41 -20 -78 -5 -23 9 -26 7 -26 -14 0 -29 16 -36 81 -36
107 0 125 97 24 135 -65 25 -61 50 6 42 48 -6 50 -5 47 16 -3 19 -10 22 -58
25 -38 2 -62 -2 -77 -13z"/>
<path d="M2060 2625 c0 -20 5 -25 25 -25 25 0 25 -1 25 -85 l0 -85 30 0 30 0
0 85 c0 84 0 85 25 85 20 0 25 5 25 25 0 25 -1 25 -80 25 -79 0 -80 0 -80 -25z"/>
<path d="M2260 2553 c-14 -54 -26 -104 -28 -110 -2 -8 7 -13 22 -13 19 0 27 6
32 25 5 19 13 25 34 25 21 0 29 -6 34 -25 5 -21 12 -25 45 -25 l40 0 -25 93
c-14 50 -27 100 -30 110 -4 13 -16 17 -53 17 l-47 0 -24 -97z m79 -10 c1 -27
-3 -33 -20 -33 -19 0 -20 4 -14 43 4 23 10 46 13 51 8 14 20 -23 21 -61z"/>
<path d="M2470 2541 l0 -111 35 0 c34 0 35 1 35 40 0 22 4 40 10 40 5 0 15
-18 21 -40 11 -38 14 -40 51 -40 l39 0 -22 38 -22 39 21 21 c28 28 28 73 1 98
-15 14 -40 20 -95 22 l-74 4 0 -111z m114 63 c19 -18 19 -20 6 -45 -6 -10 -20
-19 -30 -19 -17 0 -20 7 -20 40 0 44 16 52 44 24z"/>
<path d="M2700 2540 l0 -110 70 0 c63 0 70 2 70 20 0 16 -7 20 -35 20 -21 0
-35 5 -36 13 0 6 0 47 1 90 l1 77 -35 0 -36 0 0 -110z"/>
<path d="M2880 2540 l0 -110 30 0 30 0 0 110 0 110 -30 0 -30 0 0 -110z"/>
<path d="M3023 2635 c-28 -20 -30 -65 -5 -87 9 -9 34 -23 55 -31 64 -27 37
-59 -35 -40 -36 10 -38 9 -38 -12 0 -28 17 -35 81 -35 107 0 125 97 24 135
-65 25 -61 50 6 42 48 -6 50 -5 47 16 -3 19 -10 22 -58 25 -38 2 -62 -2 -77
-13z"/>
<path d="M3200 2625 c0 -20 5 -25 25 -25 25 0 25 -1 25 -85 l0 -85 30 0 30 0
0 85 c0 84 0 85 25 85 20 0 25 5 25 25 0 25 -1 25 -80 25 -79 0 -80 0 -80 -25z"/>
</g>
</svg>
